<svg width="24" height="24" viewBox="0 0 24 24" fill="none" xmlns="http://www.w3.org/2000/svg">
<path d="M21.3724 5.12845C19.6771 3.4336 17.421 2.5 15.0191 2.5C12.9106 2.5 10.8633 3.24303 9.25479 4.592L8.66971 5.08205C8.35588 5.04297 8.03691 5.02348 7.71828 5.02348H7.66188L7.63199 5.02474C5.60074 5.04771 3.69314 5.85068 2.25914 7.28691C0.802114 8.74348 -0.00039985 10.6793 1.49458e-07 12.7374C1.49458e-07 14.7956 0.802971 16.7314 2.26 18.1888C3.71834 19.6475 5.65668 20.4504 7.71834 20.4504H14.4457C14.6354 20.4622 14.8281 20.4683 15.0191 20.4683H15.0434L15.1844 20.4648C15.7938 20.4531 16.398 20.3814 16.9818 20.2525C17.375 20.1644 17.7626 20.0507 18.1328 19.914C19.3551 19.4634 20.4454 18.7642 21.3738 17.8363C24.8759 14.3325 24.8754 8.63194 21.3724 5.12845ZM7.71828 18.3034C6.23171 18.3034 4.83114 17.7236 3.77817 16.6706C1.60371 14.4961 1.60371 10.9783 3.77731 8.80514C4.82462 7.75611 6.21565 7.17794 7.69657 7.17188L7.71828 7.17057C7.99828 7.17057 8.27302 7.19057 8.54468 7.23177C8.83548 7.27474 9.12194 7.34205 9.40062 7.42931C9.92536 7.59377 10.4219 7.83771 10.878 8.1524C11.0902 8.3 11.2955 8.46228 11.4895 8.64154C11.5468 8.69497 11.6054 8.74874 11.661 8.80519L12.0442 9.18754L13.8984 11.0434C14.2035 11.3469 14.2026 11.8403 13.8984 12.1437C13.7464 12.2956 13.5476 12.3716 13.3489 12.3716C13.1497 12.3716 12.95 12.2956 12.7981 12.1437L10.9223 10.267L10.5321 9.87765C10.4735 9.81862 10.4119 9.76439 10.3494 9.70879C9.80771 9.24005 9.16233 8.92714 8.46485 8.79777C8.22091 8.75177 7.97268 8.72834 7.71874 8.72834L7.60462 8.73011C6.57422 8.75959 5.60982 9.17411 4.87805 9.90502C3.31034 11.4719 3.31034 14.0027 4.8776 15.5691C5.63674 16.3282 6.64628 16.7462 7.71874 16.7462H8.42839L9.08376 17.3807C9.41582 17.7141 9.77211 18.0335 10.1463 18.3035H7.71828V18.3034ZM19.855 16.3181C19.1445 17.0287 18.3047 17.5625 17.3906 17.8994C17.1055 18.0044 16.8116 18.0903 16.513 18.1572C16.0672 18.2556 15.609 18.3095 15.1428 18.3186L15.0191 18.3212C13.415 18.3212 11.8972 17.7722 10.6741 16.7652C10.5057 16.6259 10.3412 16.4758 10.1824 16.3182L9.85211 15.9866L9.07302 15.2092L6.98314 13.1186C6.67805 12.8151 6.67805 12.3217 6.98314 12.0174C7.13417 11.8655 7.33428 11.7891 7.53222 11.7891C7.73228 11.7891 7.93108 11.8655 8.08388 12.0174L11.2748 15.2092L11.2835 15.217C11.5808 15.5157 11.9086 15.7726 12.2587 15.9866C13.0803 16.4931 14.0287 16.7652 15.0192 16.7652C15.4636 16.7652 15.9007 16.7101 16.3204 16.6042C16.5821 16.5387 16.8386 16.451 17.0864 16.3468C17.7014 16.0835 18.2674 15.7053 18.7556 15.2171C20.8142 13.158 20.8139 9.80651 18.7556 7.74748C17.724 6.71708 16.3724 6.20228 15.0191 6.20228C13.9892 6.20228 12.9596 6.50131 12.0716 7.09897C11.6255 6.75257 11.1433 6.46314 10.6346 6.23703C11.898 5.17754 13.4584 4.6472 15.0191 4.6472C16.7712 4.6472 18.5212 5.31388 19.8537 6.64674C22.5204 9.31337 22.5204 13.6519 19.855 16.3181Z" fill="white"/>
</svg>
