<svg width="24" height="24" viewBox="0 0 24 24" fill="none" xmlns="http://www.w3.org/2000/svg">
<g clip-path="url(#clip0_231_272)">
<path d="M4.39453 18.8711V15.4492C4.39453 13.5859 3.77344 13.2578 2.98828 13.0938C2.47266 12.9883 2.09766 12.7422 2.09766 12.1562C2.09766 11.5469 2.50781 11.3125 3 11.207C3.75 11.0547 4.39453 10.7266 4.39453 8.85156V5.85156C4.39453 3.0625 5.88281 2.16016 8.07422 2.16016C8.54297 2.16016 9.21094 2.21875 9.21094 2.83984C9.21094 3.15625 9.02344 3.41406 8.47266 3.47266C7.38281 3.54297 5.89453 3.46094 5.89453 6.01562V9.4375C5.89453 11.0664 5.26172 11.8984 3.97266 12.0273V12.2734C5.26172 12.3906 5.89453 13.2344 5.89453 14.8516V18.707C5.89453 21.2617 7.38281 21.1914 8.47266 21.25C9.02344 21.3086 9.21094 21.5664 9.21094 21.8828C9.21094 22.5156 8.54297 22.5625 8.07422 22.5625C5.88281 22.5625 4.39453 21.6719 4.39453 18.8711ZM19.5938 18.8711C19.5938 21.6719 18.1055 22.5625 15.9023 22.5625C15.4453 22.5625 14.7773 22.5156 14.7773 21.8828C14.7773 21.5664 14.9648 21.3086 15.5039 21.25C16.5938 21.1914 18.0938 21.2617 18.0938 18.707V14.8516C18.0938 13.2344 18.7266 12.3906 20.0156 12.2734V12.0273C18.7266 11.8984 18.0938 11.0664 18.0938 9.4375V6.01562C18.0938 3.46094 16.5938 3.54297 15.5039 3.47266C14.9648 3.41406 14.7773 3.15625 14.7773 2.83984C14.7773 2.21875 15.4453 2.16016 15.9023 2.16016C18.1055 2.16016 19.5938 3.0625 19.5938 5.85156V8.85156C19.5938 10.7266 20.2266 11.0547 20.9766 11.207C21.4688 11.3125 21.8789 11.5469 21.8789 12.1562C21.8789 12.7422 21.5039 12.9883 20.9883 13.0938C20.2031 13.2578 19.5938 13.5859 19.5938 15.4492V18.8711Z" fill="white"/>
</g>
<defs>
<clipPath id="clip0_231_272">
<rect width="24" height="24" fill="white"/>
</clipPath>
</defs>
</svg>
