<svg width="17" height="24" viewBox="0 0 17 24" fill="none" xmlns="http://www.w3.org/2000/svg">
<path d="M15.907 2.9032H1.0923C0.737431 2.9032 0.471194 3.20349 0.502502 3.55832L1.85565 18.7219C1.88699 19.0764 2.19366 19.4475 2.53763 19.5433L7.87189 21.0251C8.2154 21.1203 8.77686 21.1209 9.12087 21.0263L14.4617 19.5467C14.8058 19.4511 15.1125 19.0834 15.1438 18.7282L16.4975 3.55832C16.5288 3.20349 16.2637 2.9032 15.907 2.9032ZM13.3377 8.3768C13.3375 8.37912 13.3357 8.38094 13.3334 8.38133C13.3311 8.38171 13.3288 8.38052 13.3278 8.37835L9.14858 10.091C9.08906 10.1154 9.05512 10.1785 9.06749 10.2416C9.07994 10.3047 9.13529 10.3503 9.19964 10.3503H12.4504C12.6234 10.3503 12.7881 10.4237 12.9037 10.5523C13.0194 10.6809 13.0749 10.8526 13.0566 11.0245L12.5486 15.7893C12.5237 16.0231 12.3666 16.2217 12.1448 16.2997L8.69438 17.5138C8.56443 17.5595 8.42277 17.5599 8.29251 17.5147L4.85817 16.3251C4.63503 16.2478 4.47663 16.0486 4.45154 15.8138L4.22129 13.6559C4.20919 13.5426 4.2458 13.4295 4.32194 13.3448C4.39812 13.2601 4.50666 13.2117 4.62061 13.2117H5.57629C5.78165 13.2117 5.95388 13.3666 5.97561 13.5708L6.11688 14.8972L8.49482 15.7237L10.8837 14.8896L11.1758 12.1387H4.42159C4.21684 12.1387 4.04488 11.9847 4.02242 11.7812L3.89383 10.6153C3.87419 10.4374 3.97453 10.2681 4.13989 10.2L8.46266 8.41774C8.51171 8.39752 8.53958 8.34553 8.52929 8.29351C8.51897 8.24152 8.4734 8.20407 8.42041 8.20407H3.86913C3.7321 8.20407 3.61719 8.10059 3.60289 7.96438L3.47124 6.71123C3.46332 6.63582 3.48778 6.56057 3.53853 6.50417C3.58928 6.44782 3.6616 6.41562 3.73744 6.41562H13.2606C13.3368 6.41562 13.4095 6.44817 13.4603 6.50502C13.511 6.56192 13.5352 6.63776 13.5265 6.71351L13.3377 8.3768Z" fill="white"/>
</svg>
