<svg width="18" height="24" viewBox="0 0 18 24" fill="none" xmlns="http://www.w3.org/2000/svg">
<path fill-rule="evenodd" clip-rule="evenodd" d="M7.66926 1.8677H4.80542C3.22377 1.8677 1.94158 3.1011 1.94158 4.62256C1.94158 6.14403 3.22377 7.37743 4.80542 7.37743H7.66926V1.8677ZM7.66926 0H9.61084H12.4747C15.1287 0 17.28 2.06958 17.28 4.62256C17.28 6.12913 16.5309 7.46737 15.3712 8.31128C16.5309 9.1552 17.28 10.4934 17.28 12C17.28 14.553 15.1287 16.6226 12.4747 16.6226C11.4016 16.6226 10.4106 16.2842 9.61084 15.7124V16.6226V19.3774C9.61084 21.9304 7.45937 24 4.80542 24C2.15145 24 0 21.9304 0 19.3774C0 17.8708 0.749219 16.5326 1.90881 15.6887C0.749219 14.8448 0 13.5066 0 12C0 10.4934 0.749237 9.1552 1.90885 8.3113C0.749237 7.46737 0 6.12913 0 4.62256C0 2.06958 2.15145 0 4.80542 0H7.66926ZM9.61084 1.8677V7.37743H12.4747C14.0564 7.37743 15.3384 6.14403 15.3384 4.62256C15.3384 3.1011 14.0564 1.8677 12.4747 1.8677H9.61084ZM4.80542 14.7548H7.66926V12.0071V12V11.9929V9.24515H4.80542C3.22377 9.24515 1.94158 10.4785 1.94158 12C1.94158 13.5178 3.21763 14.749 4.79406 14.7549L4.80542 14.7548ZM1.94158 19.3774C1.94158 17.8596 3.21763 16.6285 4.79406 16.6226L4.80542 16.6226H7.66926V19.3774C7.66926 20.8989 6.38707 22.1323 4.80542 22.1323C3.22377 22.1323 1.94158 20.8989 1.94158 19.3774ZM9.61084 11.9945C9.61393 10.4756 10.8949 9.24515 12.4747 9.24515C14.0564 9.24515 15.3384 10.4785 15.3384 12C15.3384 13.5215 14.0564 14.7549 12.4747 14.7549C10.8949 14.7549 9.61393 13.5244 9.61084 12.0055V11.9945Z" fill="white"/>
</svg>
