<svg width="20" height="24" viewBox="0 0 20 24" fill="none" xmlns="http://www.w3.org/2000/svg">
<path d="M18.6585 11.1976L10.7994 3.33909C10.5894 3.12963 10.2995 3 9.97899 3C9.65851 3 9.36863 3.12963 9.15858 3.33909L7.53034 4.97033L9.60029 7.04028C9.73233 6.99407 9.88417 6.96766 10.0426 6.96766C10.8042 6.96766 11.4212 7.58462 11.4212 8.34623C11.4212 8.50767 11.3936 8.66191 11.3426 8.80595L11.3456 8.79635L13.3393 10.7913C13.4725 10.7439 13.6268 10.7163 13.787 10.7163C14.548 10.7163 15.165 11.3332 15.165 12.0942C15.165 12.8552 14.548 13.4722 13.787 13.4722C13.026 13.4722 12.409 12.8552 12.409 12.0942C12.409 11.9064 12.4469 11.7275 12.5147 11.5643L12.5111 11.5733L10.6446 9.71639V14.6101C11.1031 14.8412 11.4122 15.3081 11.4122 15.847C11.4122 16.6092 10.794 17.2274 10.0318 17.2274C9.26961 17.2274 8.65144 16.6092 8.65144 15.847C8.65144 15.4665 8.80508 15.1226 9.05415 14.873C9.18078 14.7463 9.33142 14.6437 9.49887 14.5717L9.50787 14.5681V9.62637C9.00253 9.41391 8.65444 8.92238 8.65444 8.35043C8.65444 8.15838 8.69345 7.97593 8.76427 7.80968L8.76067 7.81869L6.72673 5.77514L1.33729 11.161C1.12843 11.3716 1 11.6615 1 11.982C1 12.3025 1.12903 12.5924 1.33789 12.803L9.19759 20.6603C9.40704 20.8704 9.69692 21 10.0174 21C10.3379 21 10.6272 20.8704 10.8372 20.6603L18.6597 12.8378C18.8698 12.6284 19 12.3379 19 12.018C19 11.6981 18.8698 11.4076 18.6597 11.1982L18.6585 11.1976Z" fill="white"/>
</svg>
