<svg width="17" height="24" viewBox="0 0 17 24" fill="none" xmlns="http://www.w3.org/2000/svg">
<path fill-rule="evenodd" clip-rule="evenodd" d="M1.04656 2.92798C0.752892 2.92798 0.522458 3.17987 0.548538 3.47238L1.92515 18.9125C1.94364 19.1199 2.08874 19.2941 2.28937 19.3499L8.35599 21.0348C8.44345 21.0591 8.53588 21.0591 8.62336 21.0349L14.7075 19.3483C14.9082 19.2926 15.0534 19.1184 15.072 18.9109L16.4514 3.47248C16.4775 3.17993 16.247 2.92798 15.9533 2.92798H1.04656ZM13.3298 8.27017H5.66648L5.84958 10.3211H12.6016C12.8953 10.3211 13.1257 10.5731 13.0996 10.8656L12.6297 16.1246C12.6112 16.3321 12.466 16.5063 12.2653 16.562L8.62475 17.5709C8.53733 17.5951 8.44496 17.5951 8.35754 17.5709L4.72139 16.5621C4.52069 16.5064 4.37553 16.3321 4.35704 16.1247L4.15577 13.8674C4.12969 13.5749 4.36013 13.323 4.6538 13.323H5.66109C5.91995 13.323 6.13601 13.5205 6.1591 13.7784L6.26154 14.9221L8.49262 15.523L8.49705 15.5216L10.7281 14.9191L10.9599 12.3219H4.47613C4.21716 12.3219 4.00105 12.1241 3.97809 11.8662L3.52813 6.80932C3.50211 6.51684 3.73253 6.265 4.02616 6.265H12.9641C13.2581 6.265 13.4886 6.51735 13.4621 6.81011L13.3298 8.27017Z" fill="white"/>
</svg>
