<svg width="17" height="24" viewBox="0 0 17 24" fill="none" xmlns="http://www.w3.org/2000/svg">
<g clip-path="url(#clip0_375_80)">
<g clip-path="url(#clip1_375_80)">
<path fill-rule="evenodd" clip-rule="evenodd" d="M2.2 3H14.8C16.2912 3 17.5 4.20883 17.5 5.7V18.3C17.5 19.7912 16.2912 21 14.8 21H2.2C0.708831 21 -0.5 19.7912 -0.5 18.3V5.7C-0.5 4.20883 0.708831 3 2.2 3ZM12.543 17.0273C11.7344 17.0273 11.2422 16.6055 10.8906 16.0078L9.48438 16.8164C9.97656 17.8008 10.9961 18.5391 12.5781 18.5391C14.1953 18.5391 15.3906 17.6953 15.3906 16.1836C15.3906 14.7422 14.582 14.1445 13.1406 13.5117L12.7188 13.3359C11.9805 13.0195 11.6641 12.8086 11.6641 12.3164C11.6641 11.8945 11.9805 11.5781 12.4727 11.5781C12.9648 11.5781 13.2812 11.7891 13.5625 12.3164L14.8633 11.4727C14.3359 10.4883 13.5625 10.1016 12.4727 10.1016C10.9609 10.1016 10.0117 11.0859 10.0117 12.3516C10.0117 13.7227 10.8203 14.3555 12.0508 14.8828L12.4727 15.0586C13.2461 15.4102 13.7031 15.6211 13.7031 16.1836C13.7031 16.6758 13.2461 17.0273 12.543 17.0273ZM4.97284 16.2447C4.95349 16.2129 4.93395 16.1808 4.91406 16.1484L3.54297 16.8867C3.92969 17.7305 4.70312 18.4336 6.07422 18.4336C7.58594 18.4336 8.60547 17.6602 8.60547 15.9023V10.1367H6.91797V15.9727C6.91797 16.8164 6.56641 17.0273 6.00391 17.0273C5.44852 17.0273 5.22708 16.663 4.97284 16.2447Z" fill="white"/>
</g>
</g>
<defs>
<clipPath id="clip0_375_80">
<rect width="17" height="24" fill="white"/>
</clipPath>
<clipPath id="clip1_375_80">
<rect width="18" height="18" fill="white" transform="translate(-0.5 3)"/>
</clipPath>
</defs>
</svg>
