<svg width="24" height="24" viewBox="0 0 24 24" fill="none" xmlns="http://www.w3.org/2000/svg">
<g clip-path="url(#clip0_231_276)">
<path d="M11.8813 4.44687C10.7723 5.22683 9.51543 6.11089 8.84202 7.57347C7.67232 10.125 11.2356 12.9084 11.3878 13.0256C11.4232 13.0529 11.4656 13.0665 11.5078 13.0665C11.5527 13.0665 11.5976 13.0511 11.6341 13.0206C11.7049 12.9614 11.7249 12.8609 11.6824 12.7791C11.6695 12.7542 10.3905 10.2699 10.4381 8.48751C10.4549 7.86682 11.3236 7.16264 12.2433 6.41707C13.0857 5.73421 14.0405 4.96023 14.5992 4.05485C15.8256 2.06191 14.4625 0.102255 14.4486 0.08274C14.3944 0.00672717 14.2945 -0.0208924 14.209 0.0166419C14.1237 0.0542549 14.0764 0.146635 14.0959 0.237835C14.0986 0.25074 14.3637 1.54666 13.6261 2.88176C13.3221 3.43344 12.6545 3.90313 11.8813 4.44687Z" fill="white"/>
<path d="M16.5534 5.32569C16.6316 5.26675 16.6546 5.15926 16.6072 5.07349C16.5598 4.98772 16.4567 4.94987 16.3651 4.98466C16.1767 5.05626 11.7518 6.76183 11.7518 8.82275C11.7518 10.2433 12.3587 10.9938 12.8018 11.5419C12.9756 11.7568 13.1257 11.9424 13.1751 12.1009C13.3143 12.5576 12.9845 13.3831 12.8458 13.6626C12.8059 13.743 12.8255 13.8403 12.8934 13.899C12.9302 13.9307 12.9761 13.9468 13.022 13.9468C13.0611 13.9468 13.1004 13.9351 13.1343 13.9115C13.2104 13.8586 14.9937 12.5977 14.6738 11.0787C14.5547 10.5013 14.271 10.0794 14.0206 9.70713C13.6327 9.13042 13.3526 8.71377 13.7776 7.94428C14.2757 7.04692 16.5306 5.34277 16.5534 5.32569Z" fill="white"/>
<path d="M5.03539 13.9796C4.95953 14.2067 4.99533 14.4321 5.13886 14.6314C5.61855 15.2973 7.31758 15.664 9.92327 15.664C9.92342 15.664 9.92358 15.664 9.92358 15.664C10.2767 15.664 10.6494 15.6571 11.0312 15.6434C15.1972 15.4942 16.7424 14.1964 16.8061 14.1413C16.8756 14.0812 16.8942 13.981 16.851 13.8999C16.8078 13.819 16.7146 13.7783 16.6256 13.8028C15.1585 14.2034 12.4187 14.3455 10.5184 14.3455C8.39199 14.3455 7.30908 14.1924 7.04398 14.0793C7.18004 13.8925 8.01909 13.559 9.0588 13.3545C9.15818 13.335 9.22648 13.2432 9.21665 13.1424C9.20681 13.0416 9.12214 12.9647 9.02087 12.9647C8.41135 12.9648 5.35486 13.0137 5.03539 13.9796Z" fill="white"/>
<path d="M18.9756 12.6431C18.1164 12.6431 17.3016 13.0736 17.2672 13.092C17.1878 13.1346 17.1475 13.2257 17.1693 13.3132C17.1912 13.4006 17.2698 13.4621 17.3599 13.4621C17.3782 13.4622 19.1928 13.477 19.3572 14.5138C19.5028 15.4083 17.6402 16.8575 16.9102 17.3405C16.8314 17.3927 16.8008 17.4936 16.8374 17.5807C16.8685 17.6549 16.9408 17.7013 17.0187 17.7013C17.0323 17.7013 17.0461 17.6999 17.0597 17.6969C17.233 17.6599 21.2975 16.7643 20.8678 14.3977C20.6056 12.9474 19.6941 12.6431 18.9756 12.6431Z" fill="white"/>
<path d="M16.1883 17.051C16.2024 16.9751 16.1709 16.898 16.1078 16.8538L15.1332 16.1712C15.0857 16.1379 15.0256 16.1274 14.9698 16.1422C14.9597 16.1449 13.9405 16.4127 12.4609 16.577C11.8736 16.6429 11.2159 16.6777 10.5586 16.6777C9.07932 16.6777 8.11208 16.5039 7.97123 16.3764C7.95258 16.3406 7.95848 16.3243 7.96179 16.3152C7.98736 16.244 8.12451 16.1594 8.21296 16.126C8.31061 16.0899 8.36325 15.9838 8.33288 15.8842C8.30259 15.7846 8.1999 15.7259 8.09855 15.7503C7.12092 15.9862 6.64289 16.3161 6.67767 16.7308C6.73944 17.466 8.44249 17.8434 9.88225 17.9432C10.0893 17.9574 10.3132 17.9646 10.5476 17.9646C10.5478 17.9646 10.5479 17.9646 10.548 17.9646C12.9421 17.9646 16.0113 17.2135 16.042 17.2058C16.1169 17.1873 16.174 17.1268 16.1883 17.051Z" fill="white"/>
<path d="M8.84073 18.629C8.91454 18.5809 8.94727 18.4897 8.92107 18.4057C8.89494 18.3217 8.81633 18.2665 8.72805 18.2676C8.59703 18.2711 7.44606 18.323 7.36548 19.0558C7.34109 19.2748 7.4038 19.4748 7.55197 19.6504C7.96524 20.1401 9.08073 20.4312 10.9617 20.5403C11.1842 20.5536 11.4102 20.5603 11.6336 20.5603C14.0249 20.5603 15.6355 19.8116 15.7029 19.7797C15.7683 19.7488 15.8114 19.6846 15.8153 19.6124C15.8191 19.5402 15.7831 19.4717 15.7214 19.434L14.4898 18.6821C14.447 18.6561 14.3959 18.6474 14.3471 18.6574C14.3393 18.6591 13.5573 18.8212 12.3771 18.9815C12.1538 19.0118 11.8742 19.0273 11.546 19.0273C10.3671 19.0273 9.05586 18.8346 8.80437 18.7086C8.80075 18.6849 8.8054 18.655 8.84073 18.629Z" fill="white"/>
<path d="M10.5192 22.821C15.9967 22.8163 18.9366 21.8422 19.5029 21.2293C19.7034 21.0123 19.725 20.807 19.708 20.6729C19.6659 20.3429 19.3653 20.1409 19.3312 20.119C19.249 20.0661 19.1386 20.0799 19.0745 20.1539C19.0105 20.228 19.009 20.336 19.0733 20.4099C19.1078 20.4543 19.1278 20.5287 19.0267 20.6298C18.8004 20.8412 16.5168 21.4831 12.7148 21.6759C12.1939 21.703 11.6477 21.7167 11.0912 21.7168C7.68698 21.7168 5.19563 21.2506 4.8686 20.9788C4.99474 20.7977 5.87589 20.5083 6.81307 20.3447C6.91867 20.3263 6.99004 20.2268 6.97367 20.1209C6.95731 20.0149 6.85965 19.942 6.75295 19.9559C6.72651 19.9595 6.63689 19.965 6.53294 19.9713C4.98664 20.0657 3.1997 20.2762 3.10646 21.0728C3.07813 21.3157 3.15029 21.536 3.32096 21.7278C3.73856 22.197 4.93895 22.8209 10.519 22.8209C10.5191 22.821 10.5192 22.821 10.5192 22.821Z" fill="white"/>
<path d="M20.5788 21.402C20.5014 21.3662 20.41 21.3843 20.3521 21.4466C20.344 21.4553 19.5206 22.3164 17.0445 22.8221C16.0965 23.012 14.3171 23.1084 11.7558 23.1084C9.18958 23.1084 6.7478 23.0074 6.72341 23.0064C6.62143 23.0014 6.53416 23.0755 6.52032 23.1759C6.50639 23.2764 6.57107 23.3709 6.66959 23.3943C6.695 23.4004 9.25402 23.9999 12.753 23.9999C14.4312 23.9999 16.0642 23.8635 17.6068 23.5946C20.4831 23.0903 20.6844 21.6641 20.6916 21.6037C20.7016 21.5192 20.6561 21.4378 20.5788 21.402Z" fill="white"/>
</g>
<defs>
<clipPath id="clip0_231_276">
<rect width="24" height="23.9999" fill="white"/>
</clipPath>
</defs>
</svg>
