<svg width="19" height="24" viewBox="0 0 19 24" fill="none" xmlns="http://www.w3.org/2000/svg">
<g clip-path="url(#clip0_374_63)">
<path d="M7.24186 21.0362C7.10186 20.9756 6.98686 20.9162 6.87561 20.8499L6.89061 20.8581C6.27998 20.5249 5.75623 20.1262 5.29998 19.6612L5.29873 19.6599C4.48436 18.7893 3.87561 17.7162 3.55561 16.5256L3.54373 16.4737C3.34061 15.7443 3.20248 14.8968 3.15811 14.0243L3.15686 13.9962C3.14436 13.8156 3.13748 13.6043 3.13748 13.3918C3.13748 13.0318 3.15748 12.6768 3.19686 12.3274L3.19311 12.3706C3.29498 11.3299 3.60811 10.3806 4.08936 9.53994L4.07123 9.57432C4.43498 8.94057 4.90061 8.40807 5.45186 7.97994L5.46373 7.97057C5.82998 7.68744 6.25186 7.44994 6.70561 7.27869L6.73936 7.26744C7.16373 7.10869 7.65373 7.01744 8.16498 7.01744C8.63873 7.01744 9.09436 7.09619 9.51936 7.24119L9.48998 7.23244C9.51248 7.23244 9.51248 7.23244 9.52498 7.25557C9.53686 7.26744 9.55998 7.26744 9.57186 7.27869C9.60686 7.29119 9.65311 7.31369 9.70061 7.33619C9.91623 7.44869 10.0962 7.55744 10.2687 7.67619L10.25 7.66432C10.9537 8.16119 11.5112 8.81994 11.875 9.58869L11.8875 9.61869C12.1944 10.2937 12.3756 11.0818 12.3806 11.9118V11.9137C12.3819 11.9543 12.3825 12.0018 12.3825 12.0499C12.3825 12.8912 12.1962 13.6893 11.8625 14.4049L11.8769 14.3706C11.4231 15.3112 10.7144 16.0681 9.84123 16.5693L9.81686 16.5824C9.88686 16.6062 9.95748 16.6174 10.0287 16.6412C10.1894 16.6762 10.375 16.6974 10.565 16.6987H10.5662C11.7681 16.6868 12.8537 16.1981 13.6437 15.4124C13.795 15.2724 13.9331 15.1231 14.0594 14.9637L14.0656 14.9556C14.2287 14.7649 14.3869 14.5556 14.5306 14.3362L14.545 14.3131C14.71 14.0581 14.87 13.7624 15.0075 13.4543L15.0244 13.4118C15.1887 13.0399 15.3262 12.6049 15.415 12.1524L15.4219 12.1124C15.5137 11.6206 15.5669 11.0549 15.5669 10.4768C15.5669 10.2206 15.5562 9.96682 15.5362 9.71619L15.5381 9.74932C15.4669 8.07744 14.94 6.54119 14.0794 5.24619L14.0994 5.27869C13.9512 5.06619 13.8087 4.88307 13.6581 4.70744L13.6662 4.71682C13.4087 4.42619 13.1375 4.16182 12.8481 3.91869L12.8362 3.90932C12.5244 3.65119 12.1762 3.41432 11.8062 3.21182L11.7719 3.19432C11.4 3.01807 10.9606 2.85869 10.5044 2.73932L10.4506 2.72744L10.2162 2.68057C10.0531 2.65744 9.88811 2.64619 9.72123 2.63369C9.63373 2.62932 9.53186 2.62744 9.42873 2.62744C9.25248 2.62744 9.07811 2.63432 8.90561 2.64807L8.92873 2.64682C8.32248 2.68807 7.75936 2.78182 7.21561 2.92432L7.27873 2.90994C4.58436 3.63119 2.40123 5.42057 1.16873 7.78432L1.14373 7.83744C0.518731 9.05182 0.151855 10.4874 0.151855 12.0093C0.151855 12.4406 0.18123 12.8643 0.238105 13.2799L0.232481 13.2318C0.333106 14.0937 0.547481 14.8793 0.861231 15.6124L0.839981 15.5568C1.04373 16.0574 1.25998 16.4806 1.50686 16.8831L1.48436 16.8437C2.36311 18.2349 3.55186 19.3562 4.95748 20.1306L5.00623 20.1556C5.48436 20.4274 6.04123 20.6768 6.62248 20.8731L6.69123 20.8931C6.86748 20.9506 7.04248 21.0099 7.22936 21.0568L7.24186 21.0362ZM9.53373 21.3474C9.92686 21.3468 10.3137 21.3199 10.6925 21.2693L10.6475 21.2743C11.5619 21.1531 12.3906 20.9168 13.1637 20.5768L13.1044 20.5999C14.2525 20.0999 15.2337 19.4318 16.0681 18.6131L16.0669 18.6143C16.8369 17.8593 17.4756 16.9737 17.9481 15.9937L17.9725 15.9374C18.3531 15.1487 18.6331 14.2331 18.7637 13.2706L18.7694 13.2231C18.82 12.8499 18.8487 12.4187 18.8487 11.9806C18.8487 11.4543 18.8069 10.9381 18.7269 10.4349L18.7344 10.4906C18.6037 9.67369 18.3881 8.94182 18.0919 8.25244L18.115 8.31307C17.9037 7.82369 17.6812 7.40869 17.4275 7.01557L17.4481 7.04994C16.5119 5.61807 15.2425 4.47619 13.7456 3.71682L13.6912 3.69182C13.2131 3.44057 12.6506 3.20994 12.0656 3.03119L11.9944 3.01244H11.9906C12.0837 3.06182 12.1781 3.11557 12.26 3.16932C12.3537 3.22682 12.4469 3.28307 12.5344 3.34494C12.9925 3.65494 13.3919 3.99744 13.7481 4.37932L13.7519 4.38369C14.545 5.25244 15.1437 6.31244 15.4712 7.48557L15.4844 7.53932C15.6875 8.23307 15.8256 9.03869 15.87 9.86869L15.8712 9.89557C15.8862 10.0956 15.8944 10.3293 15.8944 10.5643C15.8944 10.9418 15.8725 11.3149 15.83 11.6812L15.8344 11.6368C15.715 12.6887 15.3737 13.6412 14.8581 14.4749L14.875 14.4456C14.4775 15.0874 13.9825 15.6274 13.4037 16.0624L13.3887 16.0731C12.6625 16.6606 11.7275 17.0156 10.7094 17.0156C10.4319 17.0156 10.16 16.9893 9.89748 16.9387L9.92436 16.9431C9.70061 16.8899 9.50623 16.8206 9.32123 16.7337L9.33998 16.7418C9.10686 16.6343 8.90748 16.5174 8.72061 16.3831L8.73123 16.3906C8.36123 16.1412 8.04186 15.8562 7.76498 15.5337L7.75998 15.5274C7.43061 15.1368 7.15436 14.6862 6.95311 14.1968L6.94061 14.1631C6.70686 13.5756 6.56623 12.8956 6.55498 12.1843V12.1793C6.55248 12.1143 6.55061 12.0374 6.55061 11.9606C6.55061 10.9899 6.79936 10.0781 7.23623 9.28432L7.22186 9.31307C7.56123 8.72119 7.99561 8.22369 8.50936 7.82369L8.52061 7.81494C8.67998 7.69057 8.85936 7.56682 9.04623 7.45432L9.07061 7.44057L9.08311 7.43494C8.81498 7.37119 8.50748 7.33432 8.19186 7.33432C8.10936 7.33432 8.02811 7.33682 7.94686 7.34182L7.95811 7.34119C7.60748 7.36494 7.28061 7.43182 6.97186 7.53682L6.99936 7.52869C6.69311 7.63057 6.42998 7.74932 6.18186 7.89182L6.20373 7.88057C5.98498 8.00682 5.79811 8.13432 5.62123 8.27432L5.63123 8.26682C5.46623 8.40744 5.30311 8.54807 5.15061 8.70057C4.32436 9.58869 3.75686 10.7281 3.57498 11.9918L3.57123 12.0249C3.50623 12.4712 3.46936 12.9862 3.46936 13.5099C3.46936 13.7981 3.48061 14.0837 3.50248 14.3662L3.49998 14.3287C3.57373 15.4899 3.83811 16.5699 4.26248 17.5656L4.23811 17.5012C4.51998 18.1512 4.87311 18.7112 5.29873 19.2074L5.29123 19.1987C5.94623 19.9524 6.76561 20.5456 7.69498 20.9249L7.73748 20.9406C8.21811 21.1431 8.77623 21.2918 9.35873 21.3593L9.38748 21.3618C9.42936 21.3693 9.47811 21.3737 9.52748 21.3737C9.53561 21.3737 9.54373 21.3737 9.55186 21.3731H9.55061L9.53373 21.3474Z" fill="white"/>
</g>
<defs>
<clipPath id="clip0_374_63">
<rect width="19" height="24" fill="white"/>
</clipPath>
</defs>
</svg>
