<svg width="24" height="24" viewBox="0 0 24 24" fill="none" xmlns="http://www.w3.org/2000/svg">
<path fill-rule="evenodd" clip-rule="evenodd" d="M20.5 7.18026C20.5 6.52886 19.9623 6 19.3 6H9.69996C9.03769 6 8.5 6.52886 8.5 7.18026V16.8197C8.5 17.4711 9.03769 18 9.69996 18H19.3C19.9623 18 20.5 17.4711 20.5 16.8197V7.18026ZM18.1169 12.3493V15.0231H16.5659V12.5272C16.5659 11.8995 16.3422 11.4731 15.781 11.4731C15.3518 11.4731 15.0986 11.7618 14.9856 12.0397C14.9448 12.1399 14.9325 12.2799 14.9325 12.4183V15.0229H13.383C13.383 15.0229 13.4038 10.797 13.383 10.3594H14.9329V11.0203C14.9307 11.0258 14.9262 11.0302 14.9241 11.0364H14.9329V11.0203C15.1399 10.7027 15.5067 10.2499 16.3305 10.2499C17.3529 10.2499 18.1169 10.9164 18.1169 12.3493ZM10.9756 15.0231H12.5258V10.3591H10.9756V15.0231ZM11.7604 8.11083C11.2303 8.11083 10.8831 8.4586 10.8831 8.91737C10.8831 9.36377 11.22 9.72337 11.7406 9.72337H11.7499C12.2918 9.72337 12.6276 9.36377 12.6276 8.91737C12.6171 8.4586 12.2918 8.11083 11.7604 8.11083Z" fill="#0C78CB"/>
</svg>
