<svg width="18" height="24" viewBox="0 0 18 24" fill="none" xmlns="http://www.w3.org/2000/svg">
<g clip-path="url(#clip0_374_48)">
<path d="M8.93518 3C4.35745 3 4.64313 4.98515 4.64313 4.98515L4.64877 7.04187H9.01689V7.65888H2.91268C2.91268 7.65888 -0.0157471 7.32642 -0.0157471 11.9459C-0.0157471 16.5642 2.54078 16.4008 2.54078 16.4008H4.06669V14.2573C4.06669 14.2573 3.98442 11.7007 6.58264 11.7007H10.9147C10.9147 11.7007 13.3489 11.7402 13.3489 9.3482V5.39311C13.3489 5.39311 13.7186 3 8.93518 3ZM6.52629 4.38279C6.96074 4.38279 7.31235 4.7344 7.31235 5.16885C7.31235 5.60329 6.96074 5.95491 6.52629 5.95491C6.42303 5.95505 6.32074 5.93482 6.22531 5.89537C6.12987 5.85592 6.04316 5.79803 5.97013 5.72501C5.89711 5.65198 5.83922 5.56527 5.79977 5.46983C5.76032 5.3744 5.74009 5.27212 5.74023 5.16885C5.74023 4.7344 6.09185 4.38279 6.52629 4.38279Z" fill="white"/>
<path d="M9.0648 20.9374C13.6425 20.9374 13.3568 18.9523 13.3568 18.9523L13.3512 16.8956H8.98309V16.2785H15.0867C15.0867 16.2785 18.0157 16.611 18.0157 11.9921C18.0157 7.37325 15.4592 7.53722 15.4592 7.53722H13.9333V9.68015C13.9333 9.68015 14.0156 12.2367 11.4173 12.2367H7.08528C7.08528 12.2367 4.65103 12.1972 4.65103 14.5892V18.5443C4.65103 18.5443 4.28139 20.9374 9.0648 20.9374ZM11.4737 19.5546C11.3704 19.5548 11.2681 19.5345 11.1727 19.4951C11.0773 19.4556 10.9906 19.3977 10.9175 19.3247C10.8445 19.2517 10.7866 19.165 10.7472 19.0696C10.7077 18.9741 10.6875 18.8718 10.6876 18.7686C10.6876 18.3347 11.0392 17.9831 11.4737 17.9831C11.9081 17.9831 12.2597 18.3341 12.2597 18.7686C12.2597 19.2036 11.9081 19.5546 11.4737 19.5546Z" fill="white"/>
</g>
<defs>
<clipPath id="clip0_374_48">
<rect width="18" height="24" fill="white"/>
</clipPath>
</defs>
</svg>
