<svg width="15" height="24" viewBox="0 0 15 24" fill="none" xmlns="http://www.w3.org/2000/svg">
<g clip-path="url(#clip0_423_2)">
<g clip-path="url(#clip1_423_2)">
<path d="M7.5544 11.484C6.9694 11.3918 6.6559 10.9935 6.8119 9.76275L6.82915 9.61425C6.9604 8.54475 7.0699 8.307 7.57615 8.33475C7.72465 8.3445 7.89565 8.43975 8.06665 8.58225C8.2249 8.7675 8.57665 9.00825 8.7754 9.48525C8.9179 9.83475 8.9659 10.0627 8.98615 10.3087L9.01765 10.6103V10.6088C9.03788 10.728 9.09981 10.8361 9.1924 10.9139C9.28498 10.9917 9.4022 11.0341 9.52313 11.0335C9.64406 11.0328 9.76083 10.9892 9.85261 10.9105C9.94438 10.8317 10.0052 10.7229 10.0242 10.6035C10.0302 10.5705 10.1562 7.32975 10.1562 7.2765C10.1562 6.9915 9.92965 6.759 9.64615 6.7545C9.57869 6.75479 9.51194 6.76838 9.44972 6.79447C9.3875 6.82056 9.33103 6.85865 9.28354 6.90656C9.23604 6.95448 9.19844 7.01128 9.1729 7.07372C9.14735 7.13617 9.13436 7.20303 9.13465 7.2705C9.13465 7.27725 9.1339 7.72425 9.12415 8.175C8.72215 7.731 8.2069 7.33275 7.62865 7.2975C6.08515 7.215 5.9164 8.65575 5.8144 9.486L5.7994 9.633C5.5909 11.2747 6.13015 12.3097 7.3969 12.5107C8.7754 12.7305 9.69415 13.0507 9.7024 13.9117C9.70765 14.2462 9.5344 14.589 9.23215 14.8523C9.0543 15.0072 8.84479 15.1215 8.61824 15.1871C8.39169 15.2528 8.15355 15.2683 7.9204 15.2325C7.78286 15.2089 7.64761 15.1736 7.51615 15.1268C7.33615 15.0248 6.8809 14.7443 6.65065 14.4203C6.45565 14.1473 6.38815 13.7175 6.36715 13.4453C6.37015 13.323 6.3709 13.2428 6.3709 13.233C6.37353 13.0968 6.32232 12.965 6.22838 12.8663C6.13444 12.7676 6.00536 12.7099 5.86915 12.7057C5.80129 12.7051 5.73396 12.7177 5.671 12.7431C5.60804 12.7684 5.55068 12.8059 5.50221 12.8534C5.45374 12.9009 5.4151 12.9575 5.38849 13.0199C5.36189 13.0823 5.34784 13.1494 5.34715 13.2173C5.34715 13.227 5.3344 14.2425 5.29765 14.8545C5.24515 15.8392 5.29765 16.674 5.29765 16.71C5.31865 16.9965 5.56015 17.2125 5.8429 17.193C5.91044 17.1886 5.97643 17.1709 6.03705 17.1408C6.09767 17.1107 6.1517 17.0689 6.19602 17.0177C6.24033 16.9666 6.27403 16.9071 6.29517 16.8429C6.31631 16.7786 6.32446 16.7107 6.31915 16.6432C6.31915 16.6387 6.2944 16.2345 6.2974 15.6757C6.73786 15.965 7.23227 16.1622 7.7509 16.2555C8.1312 16.319 8.52089 16.2967 8.89148 16.1903C9.26208 16.0839 9.60422 15.8961 9.8929 15.6405C10.4277 15.1763 10.7344 14.5425 10.7254 13.9005C10.7074 11.9843 8.57665 11.6475 7.5544 11.484ZM9.6304 3C8.91391 3.00059 8.20988 3.18745 7.5874 3.54225H7.5034C5.52565 3.54225 3.80065 4.58625 2.8909 6.33825C2.3449 7.383 2.2159 8.40075 2.14165 9.0225C2.13265 9.08925 2.12815 9.15 2.12065 9.219C2.03065 9.9495 2.0284 10.647 2.11315 11.298C1.81569 11.8867 1.65543 12.5352 1.6444 13.1948V13.2068C1.63823 13.6945 1.62397 14.182 1.60165 14.6693C1.56328 15.4037 1.56128 16.1396 1.59565 16.8743L1.6054 17.031C1.7734 19.257 3.61915 21 5.81215 21C6.75608 21.0027 7.67254 20.6824 8.4094 20.0925C9.84883 20.0357 11.2248 19.4848 12.3057 18.5325C13.6752 17.3422 14.4499 15.6488 14.4282 13.89C14.4184 12.8685 14.1687 11.9115 13.6947 11.0677C13.7824 10.113 13.8604 7.32075 13.8604 7.29525C13.8604 4.968 11.9974 3.04275 9.70615 3L9.6304 3ZM9.6724 5.00625C10.9039 5.02875 11.9059 6.06525 11.9059 7.317C11.9059 7.3455 11.7972 10.6897 11.7447 10.9792C11.7138 11.157 11.6627 11.3306 11.5924 11.4968C12.1594 12.1643 12.4662 12.9967 12.4737 13.9388C12.4894 15.105 11.9629 16.2458 11.0292 17.0588C10.2422 17.7539 9.22917 18.1389 8.17915 18.1417C7.99909 18.1406 7.81927 18.1285 7.64065 18.1058C7.59986 18.1612 7.55682 18.215 7.51165 18.267C7.30186 18.512 7.04137 18.7084 6.7482 18.8428C6.45503 18.9773 6.13617 19.0464 5.81365 19.0455C4.6339 19.0455 3.6409 18.1043 3.5539 16.9035L3.5479 16.812C3.51677 16.1468 3.51802 15.4805 3.55165 14.8155C3.5809 14.3062 3.59665 13.4422 3.59815 13.2555C3.60604 12.6953 3.81438 12.1565 4.1854 11.7368C4.00765 11.1105 3.9514 10.3597 4.06015 9.47175L4.07815 9.31275C4.1404 8.7915 4.23415 8.02275 4.61815 7.28775C5.1919 6.183 6.24415 5.54925 7.50415 5.54925C7.71132 5.54803 7.91817 5.5656 8.12215 5.60175C8.53165 5.22675 9.07465 4.99425 9.6724 5.00625Z" fill="white"/>
</g>
</g>
<defs>
<clipPath id="clip0_423_2">
<rect width="15" height="24" fill="white"/>
</clipPath>
<clipPath id="clip1_423_2">
<rect width="17" height="18" fill="white" transform="translate(-1 3)"/>
</clipPath>
</defs>
</svg>
