<svg width="24" height="24" viewBox="0 0 24 24" fill="none" xmlns="http://www.w3.org/2000/svg">
<g clip-path="url(#clip0_232_326)">
<path d="M12.8338 0.699398L14.2877 4.54139H12.7077C12.7077 4.54139 12.306 0.836361 11.6975 0.133056C11.9194 -0.0165067 12.1866 -0.0701791 12.4421 0.133056C12.4589 0.147292 12.4758 0.159893 12.4909 0.172657C12.6102 0.282783 12.7262 0.453618 12.8338 0.699398Z" fill="white"/>
<path d="M12.7076 4.54139H9.7661L11.2369 0.699399C11.3091 0.5158 11.4806 0.277056 11.6974 0.133057C12.3059 0.836362 12.7076 4.54139 12.7076 4.54139Z" fill="white"/>
<path d="M14.3273 5.2012L18.1597 14.4758C17.0721 12.6031 15.5625 13.5876 14.8041 16.455L12.7048 5.19169L14.3273 5.2012Z" fill="white"/>
<path d="M12.7298 5.20056L14.7612 16.4556C13.1945 11.7307 10.0891 13.464 9.19087 16.4556C7.66948 11.8036 6.32912 13.4951 5.69202 14.8195L9.6835 5.20056H12.7298Z" fill="white"/>
<path d="M19.0529 16.8732V24H15.2574V17.6785C16.0172 14.4634 17.4947 13.3515 18.5402 15.4409C18.7268 15.8142 18.8999 16.29 19.0529 16.8732Z" fill="white"/>
<path d="M14.6693 17.6784V24H9.29053V17.6784C10.1579 14.3304 13.1566 12.3904 14.6693 17.6784Z" fill="white"/>
<path d="M8.70211 17.6789V24H4.94702V16.9492C4.94702 16.9492 5.07981 16.4431 5.31682 15.8687L5.32354 15.8478C5.93891 14.3658 7.23302 12.4728 8.70211 17.6789Z" fill="white"/>
</g>
<defs>
<clipPath id="clip0_232_326">
<rect width="24" height="24" fill="white"/>
</clipPath>
</defs>
</svg>
