<svg width="15" height="24" viewBox="0 0 15 24" fill="none" xmlns="http://www.w3.org/2000/svg">
<g clip-path="url(#clip0_374_72)">
<path d="M7.49983 4.19421C3.63446 4.19421 0.499756 5.24129 0.499756 6.53953V8.4608C0.499756 9.76556 3.63446 10.8061 7.49983 10.8061C11.3652 10.8061 14.4966 9.75904 14.4966 8.4608V6.53953C14.4999 5.24129 11.3652 4.19421 7.49983 4.19421Z" fill="white"/>
<path d="M7.49983 11.9282C3.80734 11.9282 0.767233 10.9724 0.499756 9.75574C0.499756 9.81445 0.499756 12.9361 0.499756 12.9361C0.499756 14.2409 3.63446 15.2782 7.49983 15.2782C11.3652 15.2782 14.4966 14.2311 14.4966 12.9361C14.4966 12.9361 14.4966 9.81445 14.4966 9.75574C14.2292 10.9724 11.1923 11.9282 7.49983 11.9282Z" fill="white"/>
<path d="M14.4933 14.2833C14.2258 15.4968 11.1922 16.4558 7.503 16.4558C3.81377 16.4558 0.770407 15.4968 0.50293 14.2833V17.4637C0.50293 18.7685 3.63763 19.8057 7.503 19.8057C11.3684 19.8057 14.4998 18.7587 14.4998 17.4637L14.4933 14.2833Z" fill="white"/>
</g>
<defs>
<clipPath id="clip0_374_72">
<rect width="15" height="24" fill="white"/>
</clipPath>
</defs>
</svg>
