<svg width="18" height="24" viewBox="0 0 18 24" fill="none" xmlns="http://www.w3.org/2000/svg">
<g clip-path="url(#clip0_398_250)">
<path fill-rule="evenodd" clip-rule="evenodd" d="M2.7 3H15.3C16.7912 3 18 4.20883 18 5.7V18.3C18 19.7912 16.7912 21 15.3 21H2.7C1.20883 21 0 19.7912 0 18.3V5.7C0 4.20883 1.20883 3 2.7 3ZM15.0891 10.762C14.7713 10.4434 14.3603 10.2205 13.9081 10.1215C13.4365 10.0401 12.9546 10.026 12.4785 10.0795C12.011 10.14 11.5745 10.3342 11.2282 10.636C10.8819 10.9378 10.6426 11.3324 10.5426 11.7665C10.4891 12.1437 10.5002 12.5266 10.5756 12.9005C10.6775 13.2287 10.8544 13.532 11.0941 13.789C11.5973 14.2533 12.2055 14.6046 12.8732 14.8165C13.7248 15.164 14.0244 15.33 14.1711 15.5275C14.2793 15.6776 14.3279 15.8587 14.3085 16.0392C14.2891 16.2196 14.2028 16.3879 14.0648 16.5145C13.7973 16.6878 13.4838 16.7878 13.1595 16.8032C12.8351 16.8187 12.5125 16.749 12.2277 16.602C11.9458 16.4333 11.702 16.2137 11.5106 15.956L11.3969 15.8L10.8529 16.1C10.5532 16.2635 10.2356 16.4355 10.1516 16.4805C10.0911 16.5111 10.033 16.5459 9.97791 16.5845C10.109 16.8324 10.2745 17.0629 10.4698 17.27C10.987 17.7689 11.6601 18.099 12.3908 18.212C12.8679 18.2729 13.3512 18.2776 13.8295 18.226C14.2794 18.1882 14.7104 18.0377 15.0778 17.7902C15.4451 17.5427 15.7353 17.2072 15.9183 16.8185C16.0515 16.464 16.1007 16.0865 16.0626 15.7122C16.0244 15.338 15.8997 14.9761 15.6973 14.652C15.3393 14.139 14.7592 13.778 13.4077 13.2305C12.6735 12.931 12.4397 12.784 12.3138 12.539C12.2557 12.4368 12.2276 12.3218 12.2325 12.206C12.2299 11.7345 12.5986 11.4525 13.1707 11.4895C13.3514 11.4955 13.5276 11.5445 13.6828 11.6319C13.8379 11.7194 13.967 11.8424 14.0579 11.9895C14.1392 12.1025 14.2109 12.176 14.229 12.1645C14.7267 11.875 15.5475 11.356 15.5417 11.3335C15.4161 11.1264 15.2641 10.9344 15.0891 10.762ZM9.48172 11.59L9.47587 10.863L9.46631 10.139L6.16672 10.1305C4.35356 10.1275 2.85809 10.133 2.84906 10.1445C2.82836 10.3883 2.82127 10.633 2.82781 10.8775V11.5915H5.2875V18.164H7.02203V11.59H9.48172Z" fill="white"/>
</g>
<defs>
<clipPath id="clip0_398_250">
<rect width="18" height="18" fill="white" transform="translate(0 3)"/>
</clipPath>
</defs>
</svg>
