<svg width="18" height="24" viewBox="0 0 18 24" fill="none" xmlns="http://www.w3.org/2000/svg">
<g clip-path="url(#clip0_374_46)">
<path d="M17.3607 4.94011L13.6577 3.15867C13.2269 2.95055 12.7144 3.0383 12.3775 3.37524L5.28494 9.8468L2.194 7.50286C1.90712 7.28292 1.50269 7.30092 1.23606 7.54392L0.246062 8.44617C-0.0818758 8.74205 -0.0818758 9.25786 0.243249 9.55373L2.92412 12L0.243249 14.4464C-0.0818758 14.7422 -0.0818758 15.258 0.246062 15.5539L1.23606 16.4562C1.5055 16.6992 1.90712 16.7172 2.194 16.4972L5.28494 14.1505L12.3809 20.6249C12.715 20.9618 13.2274 21.0495 13.6583 20.8414L17.3646 19.0572C17.7544 18.8699 18.0002 18.4772 18.0002 18.0435V5.95261C18.0002 5.52174 17.7511 5.1263 17.3618 4.93899L17.3607 4.94011ZM13.5019 16.0877L8.11712 12.0006L13.5019 7.91349V16.0877Z" fill="white"/>
</g>
<defs>
<clipPath id="clip0_374_46">
<rect width="18" height="24" fill="white"/>
</clipPath>
</defs>
</svg>
