<svg width="435" height="328" viewBox="0 0 435 328" fill="none" xmlns="http://www.w3.org/2000/svg">
<path fill-rule="evenodd" clip-rule="evenodd" d="M170.592 130.919C188.668 130.919 203.322 116.265 203.322 98.1892C203.322 80.113 188.668 65.4594 170.592 65.4594L134.933 65.4594C152.988 65.4838 167.617 80.128 167.617 98.1891C167.617 116.265 152.964 130.919 134.887 130.919L126.953 130.919C108.877 130.919 94.2231 116.265 94.2231 98.1891C94.2231 80.6781 107.975 66.3789 125.268 65.502C107.975 66.3786 94.2225 80.6779 94.2225 98.1892C94.2225 116.265 108.876 130.919 126.952 130.919L170.592 130.919Z" fill="#BFDDF0"/>
<path fill-rule="evenodd" clip-rule="evenodd" d="M369.893 65.4595C351.842 65.4881 337.217 80.1308 337.217 98.1892C337.217 116.265 351.87 130.919 369.946 130.919H377.881C377.881 130.919 377.881 130.919 377.881 130.919H334.241C316.165 130.919 301.511 116.265 301.511 98.1892C301.511 80.1131 316.165 65.4595 334.241 65.4595L369.893 65.4595Z" fill="#BFDDF0"/>
<path d="M59.5088 32.7298C59.5088 14.6536 74.1624 0 92.2386 0H371.929C390.005 0 404.659 14.6536 404.659 32.7298C404.659 50.8059 390.005 65.4595 371.929 65.4595H92.2385C74.1624 65.4595 59.5088 50.8059 59.5088 32.7298Z" fill="#BFDDF0"/>
<path d="M89.2627 163.649C89.2627 145.573 103.916 130.919 121.992 130.919H393.749C411.825 130.919 426.479 145.573 426.479 163.649C426.479 181.725 411.825 196.378 393.749 196.378H121.992C103.916 196.378 89.2627 181.725 89.2627 163.649Z" fill="#BFDDF0"/>
<rect x="168.608" y="65.4595" width="166.624" height="65.4595" fill="#BFDDF0"/>
<path fill-rule="evenodd" clip-rule="evenodd" d="M158.709 261.838C176.776 261.827 191.419 247.178 191.419 229.108C191.419 211.032 176.765 196.379 158.689 196.379L194.395 196.379C212.471 196.379 227.125 211.032 227.125 229.108C227.125 247.185 212.471 261.838 194.395 261.838L158.709 261.838Z" fill="#BFDDF0"/>
<path fill-rule="evenodd" clip-rule="evenodd" d="M393.704 196.378C375.648 196.402 361.018 211.047 361.018 229.108C361.018 247.184 375.672 261.838 393.748 261.838H401.683C419.759 261.838 434.412 247.184 434.412 229.108C434.412 211.495 420.501 197.132 403.066 196.407C420.501 197.132 434.413 211.495 434.413 229.108C434.413 247.184 419.76 261.838 401.683 261.838H358.044C339.968 261.838 325.314 247.184 325.314 229.108C325.314 211.032 339.968 196.378 358.044 196.378H393.704Z" fill="#BFDDF0"/>
<path d="M0 294.568C0 276.492 14.6536 261.838 32.7298 261.838H379.864C397.94 261.838 412.593 276.492 412.593 294.568C412.593 312.644 397.94 327.298 379.864 327.298H32.7298C14.6536 327.298 0 312.644 0 294.568Z" fill="#BFDDF0"/>
<rect x="192.412" y="196.378" width="166.624" height="65.4595" fill="#BFDDF0"/>
</svg>
