<svg width="28" height="34" viewBox="0 0 28 34" fill="none" xmlns="http://www.w3.org/2000/svg">
<path d="M16.0503 1.25H8.75C5.45017 1.25 3.80025 1.25 2.77513 2.27513C1.75 3.30025 1.75 4.95017 1.75 8.25V25.75C1.75 29.0498 1.75 30.6997 2.77513 31.7249C3.80025 32.75 5.45017 32.75 8.75 32.75H19.25C22.5498 32.75 24.1997 32.75 25.2249 31.7249C26.25 30.6997 26.25 29.0498 26.25 25.75V11.4497C26.25 10.7344 26.25 10.3768 26.1168 10.0552C25.9836 9.73358 25.7307 9.48068 25.2249 8.97487L18.5251 2.27513C18.0193 1.76932 17.7664 1.51642 17.4448 1.38321C17.1232 1.25 16.7656 1.25 16.0503 1.25Z" stroke="white" stroke-width="2"/>
<path d="M8.75 18.75L19.25 18.75" stroke="white" stroke-width="2" stroke-linecap="round"/>
<path d="M8.75 25.75L15.75 25.75" stroke="white" stroke-width="2" stroke-linecap="round"/>
<path d="M15.75 1.25V8.25C15.75 9.89992 15.75 10.7249 16.2626 11.2374C16.7751 11.75 17.6001 11.75 19.25 11.75H26.25" stroke="white" stroke-width="2"/>
</svg>
