<svg width="29" height="30" viewBox="0 0 29 30" fill="none" xmlns="http://www.w3.org/2000/svg">
<path fill-rule="evenodd" clip-rule="evenodd" d="M14.2985 25C21.4782 25 27.2985 19.6274 27.2985 13C27.2985 6.37258 21.4782 1 14.2985 1C7.11882 1 1.29852 6.37258 1.29852 13C1.29852 16.4779 2.90138 19.6103 5.46241 21.8019C5.62021 23.674 4.04683 25.6324 2.71658 27.2882C2.63978 27.3838 2.56378 27.4784 2.48898 27.5719C0.784389 29.7027 7.52143 28.0474 10.3814 24.4457C11.6175 24.8058 12.9334 25 14.2985 25Z" fill="white"/>
<path d="M5.46241 21.8019L6.45887 21.7179L6.4244 21.309L6.1126 21.0422L5.46241 21.8019ZM2.71658 27.2882L3.49616 27.9145L3.49616 27.9145L2.71658 27.2882ZM2.48898 27.5719L1.7081 26.9472L1.70809 26.9472L2.48898 27.5719ZM10.3814 24.4457L10.6611 23.4856L10.016 23.2976L9.59824 23.8238L10.3814 24.4457ZM26.2985 13C26.2985 19.0013 21.0028 24 14.2985 24V26C21.9536 26 28.2985 20.2536 28.2985 13H26.2985ZM14.2985 2C21.0028 2 26.2985 6.99873 26.2985 13H28.2985C28.2985 5.74644 21.9536 0 14.2985 0V2ZM2.29852 13C2.29852 6.99873 7.59423 2 14.2985 2V0C6.64341 0 0.298523 5.74644 0.298523 13H2.29852ZM6.1126 21.0422C3.75236 19.0223 2.29852 16.1589 2.29852 13H0.298523C0.298523 16.7969 2.05039 20.1982 4.81221 22.5617L6.1126 21.0422ZM3.49616 27.9145C4.15163 27.0986 4.92783 26.1357 5.51248 25.128C6.09293 24.1275 6.56308 22.9541 6.45887 21.7179L4.46594 21.8859C4.51954 22.5218 4.28189 23.2636 3.78255 24.1243C3.28739 24.9778 2.61179 25.822 1.937 26.6619L3.49616 27.9145ZM3.26986 28.1966C3.3439 28.104 3.41924 28.0102 3.49616 27.9145L1.93701 26.6619C1.86032 26.7573 1.78366 26.8527 1.7081 26.9472L3.26986 28.1966ZM9.59824 23.8238C8.32979 25.4213 6.12678 26.6478 4.41281 27.208C3.99396 27.3449 3.62595 27.4346 3.32935 27.4807C3.01469 27.5296 2.84803 27.5186 2.79885 27.5087C2.71847 27.4924 3.12416 27.5569 3.20628 28.0239C3.26035 28.3313 3.0812 28.4324 3.26986 28.1966L1.70809 26.9472C1.4706 27.2441 1.12911 27.7596 1.23651 28.3703C1.37197 29.1405 2.04668 29.3971 2.40287 29.4691C2.79027 29.5473 3.22774 29.5205 3.63666 29.4569C4.06364 29.3905 4.53865 29.271 5.03415 29.109C6.97753 28.4738 9.57302 27.0718 11.1645 25.0675L9.59824 23.8238ZM14.2985 24C13.0286 24 11.8068 23.8193 10.6611 23.4856L10.1017 25.4057C11.4282 25.7922 12.8383 26 14.2985 26V24Z" fill="white"/>
<path d="M15.1657 16.0469H13.1735C13.1683 15.7604 13.1657 15.5859 13.1657 15.5234C13.1657 14.8776 13.2725 14.3464 13.486 13.9297C13.6996 13.513 14.1266 13.0443 14.7673 12.5234C15.4079 12.0026 15.7907 11.6615 15.9157 11.5C16.1084 11.2448 16.2048 10.9635 16.2048 10.6562C16.2048 10.2292 16.0329 9.86458 15.6891 9.5625C15.3506 9.25521 14.8923 9.10156 14.3141 9.10156C13.7569 9.10156 13.2907 9.26042 12.9157 9.57812C12.5407 9.89583 12.2829 10.3802 12.1423 11.0312L10.1266 10.7812C10.1839 9.84896 10.5798 9.05729 11.3141 8.40625C12.0537 7.75521 13.0225 7.42969 14.2204 7.42969C15.4808 7.42969 16.4834 7.76042 17.2282 8.42188C17.973 9.07812 18.3454 9.84375 18.3454 10.7188C18.3454 11.2031 18.2074 11.6615 17.9313 12.0938C17.6605 12.526 17.0772 13.1146 16.1813 13.8594C15.7178 14.2448 15.4287 14.5547 15.3141 14.7891C15.2048 15.0234 15.1553 15.4427 15.1657 16.0469ZM13.1735 19V16.8047H15.3688V19H13.1735Z" fill="black"/>
</svg>
