<svg width="282" height="80" viewBox="0 0 282 88" fill="none" xmlns="http://www.w3.org/2000/svg">
<g clip-path="url(#clip0_151_270)">
<path d="M36.22 10.13C37.5813 9.82745 38.9609 9.61366 40.35 9.48999L43.57 16.09L46.79 9.48999C48.1777 9.62446 49.5567 9.83815 50.92 10.13L53.87 18.75L54.53 11.11C56.798 11.775 58.9848 12.6907 61.05 13.84C63.19 14.99 63.55 16.28 63.38 17.62C63.38 17.62 63.2 18.98 61.6 18.41C61.6 18.41 64.37 19.88 63.75 22.63C63.52 23.63 62.54 24.12 61.05 23.28C59.588 22.4206 58.0637 21.6719 56.49 21.04C54.7618 20.3494 52.9745 19.8172 51.15 19.45L50.53 17.62C49.1058 17.3476 47.6665 17.1606 46.22 17.06L45.48 18.68C44.4 18.68 42.74 18.68 41.62 18.68L40.88 17.06C39.4404 17.1582 38.0078 17.3419 36.59 17.61L35.97 19.44C34.97 19.65 33.97 19.9 32.72 20.26L32.9 19.7C31.7738 20.6333 30.538 21.4258 29.22 22.06C27.93 22.69 24.39 24.48 23.53 22.75C23.3567 22.3638 23.2746 21.943 23.29 21.52C24.34 20.84 25.85 20.06 26.92 19.46C26.92 19.46 26.38 21.64 28.59 20.46C29.4382 20.1191 30.144 19.498 30.59 18.7C31.1 17.27 29.54 17.55 28.96 17.7C27.96 17.99 24.27 19.25 24.26 16.76C24.26 14.99 26.64 13.17 29.21 12.12C33.04 10.54 34.37 11.98 34.26 13.12C32.71 13.56 32.38 13.68 31.06 14.12C31.06 13.67 30.76 13.01 29.14 13.67C27.52 14.33 27.14 15.07 27.37 15.74C27.66 16.64 30.14 15.68 30.76 15.55C34.23 14.8 33.76 17.15 33.76 17.21C33.76 17.27 36.22 10.13 36.22 10.13ZM37.22 15.88C38.2114 15.6818 39.2129 15.5382 40.22 15.45L38.56 11.83L37.22 15.88ZM56.79 19.06C57.8896 19.5091 58.9615 20.0234 60 20.6C60 20.6 60.77 21.17 61.15 20.67C61.53 20.17 61.23 19.51 59.94 18.82C58.9694 18.2928 57.9675 17.8253 56.94 17.42L56.79 19.06ZM57.11 15.45C57.11 15.45 58.44 16 59.34 16.45C59.6182 16.638 59.9368 16.7579 60.27 16.8C60.3795 16.7983 60.4853 16.76 60.5705 16.6911C60.6557 16.6222 60.7154 16.5268 60.74 16.42C60.84 15.54 59.84 15.14 59.5 14.97C58.5 14.48 58.22 14.34 57.24 13.97C57.22 13.88 57.11 15.4 57.11 15.4V15.45ZM46.95 15.45C47.9582 15.529 48.9602 15.6726 49.95 15.88L48.62 11.88L46.95 15.45Z" fill="white"/>
<path d="M49.67 37.21C49.414 37.6583 49.072 38.0517 48.6635 38.3674C48.2551 38.6832 47.7883 38.9151 47.29 39.05C47.5342 38.5926 47.8726 38.1921 48.2828 37.875C48.693 37.5578 49.1658 37.3312 49.67 37.21Z" fill="white"/>
<path d="M20.45 61.14C20.1399 60.8922 19.8552 60.6141 19.6 60.31V58.96C20.4336 59.8158 21.333 60.6049 22.29 61.32V62.64C21.96 62.39 21.63 62.11 21.29 61.85V69.96L20.43 69.26L20.45 61.14Z" fill="white"/>
<path d="M22.96 61.83C23.7256 62.423 24.5346 62.9578 25.38 63.43V64.72C24.8377 64.4228 24.3165 64.0886 23.82 63.72V66.21C24.39 66.59 24.82 66.87 25.25 67.1V68.2C24.77 67.91 24.37 67.69 23.83 67.31V70.51C24.36 70.87 24.75 71.11 25.49 71.51V72.88C24.22 72.08 24.06 71.98 22.93 71.19L22.96 61.83Z" fill="white"/>
<path d="M29.22 74.43C26.65 75.83 25.22 70.03 26.44 65.6C26.68 64.76 27.44 63.68 29.1 65.6V66.79C27.78 64.89 27.1 65.46 27.1 68.47C27.01 73.81 28.24 73.74 29.25 73.06L29.22 74.43Z" fill="white"/>
<path d="M30.05 65.81C30.41 65.97 30.56 66.04 31.05 66.23V70.37C31.5351 70.5403 32.0292 70.6839 32.53 70.8V66.73C32.8554 66.8574 33.1896 66.961 33.53 67.04V76.5L32.53 76.21V71.95C32.03 71.8 31.53 71.64 31.03 71.46V75.66C30.6898 75.5333 30.356 75.3897 30.03 75.23L30.05 65.81Z" fill="white"/>
<path d="M45.7 68.4C46.08 68.4 46.37 68.33 46.78 68.28V76.49C47.5418 76.4441 48.2999 76.3506 49.05 76.21V77.45C47.95 77.62 46.8 77.76 45.72 77.84L45.7 68.4Z" fill="white"/>
<path d="M59.97 64.29L60.91 63.77V73.25L59.91 73.78L59.97 64.29Z" fill="white"/>
<path d="M62.22 63.06C63.0614 62.5408 63.8696 61.9697 64.64 61.35V62.67C64.14 63.05 63.64 63.38 63.14 63.73V66.36C63.6331 66.0653 64.1013 65.7309 64.54 65.36V66.46C64.1023 66.8275 63.6376 67.1618 63.15 67.46V70.6C63.79 70.19 64.26 69.85 64.79 69.45V70.68C63.982 71.3631 63.1265 71.988 62.23 72.55L62.22 63.06Z" fill="white"/>
<path d="M65.44 68.64C66.02 69.04 67 67.96 66.7 66.64C66.4 65.32 65.26 63.93 65.41 62.17C65.41 62.17 65.66 59.68 67.32 59.1V60.22C66.22 60.42 66.18 61.67 66.18 61.72C66.1638 62.0158 66.208 62.3118 66.31 62.59C66.56 63.27 66.94 64.01 67.22 64.67C68.42 67.49 66.85 69.87 65.45 69.86L65.44 68.64Z" fill="white"/>
<path d="M44.36 73.18C44.36 75.89 43.89 78.09 42.14 78.08C40.56 78.08 39.92 75.89 39.92 73.18C39.92 70.47 40.56 68.29 42.14 68.29C43.72 68.29 44.36 70.48 44.36 73.18ZM42.14 69.5C41.33 69.5 40.91 71.22 40.91 73.23C40.91 75.24 41.33 76.87 42.14 76.87C42.95 76.87 43.37 75.24 43.37 73.23C43.37 71.22 42.94 69.49 42.14 69.5Z" fill="white"/>
<path d="M274.58 42.06V41.95C277.44 40.88 279.52 37.63 279.52 33.88C279.52 30.13 277.83 24.01 268.14 24.01H235.02V58.9L220.02 24.01H203.71L190.85 53.64L178.11 23.96H161.8L148.48 54.64C148.723 53.6248 148.844 52.584 148.84 51.54C148.84 44.48 144.35 41.45 136.9 40.16C132.98 39.49 122.72 37.97 119.36 37.41C117.36 37.08 116.36 36.29 116.36 34.95C116.36 32.31 118.82 31.03 123.31 31.03C129.42 31.03 131.6 32.93 132 35.68H147.13C146.29 26.21 137.54 22.68 123.03 22.68C105.49 22.68 102.24 30.13 102.24 35.4C102.24 41.34 105.43 45.49 113.67 46.72L127.01 48.72C131.66 49.45 133.34 50.18 133.34 52.31C133.34 55.72 129.7 56.51 126.34 56.51C119.4 56.51 117.71 54.6 117.34 51.58H101.54C102.32 62.73 112.13 65.14 125.69 65.14C130.08 65.14 142.2 65.06 146.89 58.14L144.37 63.95H158.72L161.13 57.45H178.61L181.02 63.95H200.63L203.04 57.45H220.52L222.93 63.95H267.02C279.29 63.95 281.53 56.77 281.53 52.01C281.53 46.38 278.79 42.96 274.58 42.06ZM164.22 49.18L169.81 34.06H169.93L175.47 49.19L164.22 49.18ZM206.14 49.18L211.72 34.06H211.84L217.38 49.19L206.14 49.18ZM248.32 32.59H261.6C264.46 32.59 265.69 34.16 265.69 35.96C265.69 37.76 264.46 39.38 261.6 39.38H248.36L248.32 32.59ZM262.66 55.35H248.36V47.22H262.7C265.51 47.22 267.41 48.57 267.41 51.22C267.41 53.87 265.51 55.35 262.7 55.35H262.66Z" fill="white"/>
<path d="M43.55 1.14848e-06C34.9346 1.14848e-06 26.5128 2.55475 19.3494 7.34118C12.186 12.1276 6.60278 18.9308 3.30582 26.8903C0.00886893 34.8499 -0.853771 43.6083 0.827001 52.0581C2.50777 60.5079 6.65647 68.2696 12.7484 74.3616C18.8404 80.4535 26.6021 84.6022 35.0519 86.283C43.5017 87.9638 52.2602 87.1011 60.2197 83.8042C68.1793 80.5072 74.9824 74.924 79.7688 67.7606C84.5553 60.5972 87.11 52.1754 87.11 43.56C87.1113 37.8392 85.9855 32.1743 83.7969 26.8888C81.6083 21.6032 78.3997 16.8007 74.3545 12.7555C70.3093 8.71031 65.5068 5.50176 60.2213 3.31313C54.9357 1.1245 49.2707 -0.00131261 43.55 1.14848e-06ZM43.55 85.37C35.2812 85.368 27.1987 82.9142 20.3243 78.3189C13.45 73.7235 8.09269 67.193 4.92972 59.5531C1.76676 51.9131 0.940224 43.5068 2.5546 35.3971C4.16898 27.2875 8.15176 19.8386 13.9994 13.9923C19.847 8.1461 27.2969 4.16507 35.407 2.55264C43.517 0.940199 51.9231 1.76876 59.5623 4.93356C67.2015 8.09835 73.7307 13.4572 78.3244 20.3327C82.9181 27.2081 85.37 35.2912 85.37 43.56C85.37 49.0514 84.2882 54.489 82.1865 59.5623C80.0847 64.6356 77.0041 69.2451 73.1206 73.1277C69.2371 77.0102 64.6269 80.0897 59.5531 82.1903C54.4793 84.2908 49.0414 85.3713 43.55 85.37Z" fill="white"/>
<path d="M66.63 12.89C62.0593 8.32321 56.236 5.21569 49.8977 3.96109C43.5595 2.70649 36.9915 3.36126 31.0256 5.84247C25.0598 8.32368 19.9646 12.5197 16.3854 17.899C12.8063 23.2783 10.9042 29.5988 10.92 36.06C10.92 36.06 10.92 51.57 10.92 51.78C11.0774 60.3338 14.588 68.4836 20.6956 74.4743C26.8032 80.465 35.0193 83.8175 43.5745 83.8096C52.1297 83.8017 60.3396 80.4342 66.4362 74.4323C72.5328 68.4303 76.0283 60.2741 76.17 51.72V36.06C76.1894 31.7592 75.3563 27.4972 73.7189 23.5203C72.0814 19.5433 69.6721 15.9303 66.63 12.89ZM66.01 73.57C61.6048 77.9745 56.0016 80.9863 49.8977 82.2305C43.7938 83.4747 37.4588 82.8965 31.6811 80.5677C25.9033 78.2389 20.938 74.2624 17.4031 69.1331C13.8681 64.0039 11.9196 57.9483 11.8 51.72C11.9282 49.446 12.3038 47.1927 12.92 45C15.3129 51.1685 19.5159 56.4687 24.9768 60.2044C30.4376 63.94 36.9008 65.9363 43.5171 65.9309C50.1335 65.9255 56.5934 63.9186 62.0481 60.1741C67.5028 56.4295 71.6972 51.1224 74.08 44.95C74.721 47.0938 75.1333 49.2994 75.31 51.53C75.2095 59.8098 71.8712 67.7211 66.01 73.57ZM13.41 43.57C15.0534 38.6047 17.9217 34.1337 21.75 30.57C27.7094 25.0567 35.5416 22.0147 43.66 22.06C51.7245 22.0818 59.4761 25.1832 65.33 30.73C69.1113 34.2672 71.9827 38.6652 73.7 43.55C71.5257 49.8131 67.4545 55.2434 62.0522 59.0865C56.6499 62.9295 50.1848 64.9945 43.555 64.9945C36.9252 64.9945 30.4601 62.9295 25.0578 59.0865C19.6555 55.2434 15.5844 49.8131 13.41 43.55V43.57ZM75.31 46.17C73.7671 40.0377 70.4856 34.4816 65.86 30.17C59.8496 24.4671 51.8854 21.2793 43.6 21.26C35.2512 21.2272 27.203 24.3736 21.09 30.06C16.5097 34.3088 13.2791 39.8101 11.8 45.88V36.06C11.7251 31.8425 12.4912 27.6523 14.0534 23.734C15.6157 19.8158 17.9428 16.248 20.8989 13.2389C23.8551 10.2298 27.381 7.83979 31.2709 6.20828C35.1609 4.57677 39.3368 3.73649 43.555 3.73649C47.7732 3.73649 51.9492 4.57677 55.8391 6.20828C59.729 7.83979 63.255 10.2298 66.2111 13.2389C69.1672 16.248 71.4943 19.8158 73.0566 23.734C74.6188 27.6523 75.3848 31.8425 75.31 36.06V46.17Z" fill="white"/>
<path d="M27.6 42.88C28.454 43.3858 29.4391 43.626 30.43 43.57C32.54 43.27 33.16 42.44 35.09 43C35.6829 43.2089 36.22 43.551 36.66 44C36.3355 43.895 35.9999 43.8279 35.66 43.8C33.6 43.67 31.96 45.25 29.94 44.74C29.4296 44.6398 28.9507 44.4186 28.5435 44.095C28.1363 43.7713 27.8127 43.3546 27.6 42.88Z" fill="white"/>
<path d="M48.5 33.63C48.7177 33.6405 48.9271 33.7173 49.1 33.85L53.01 25.37C48.79 25.37 50.31 28.18 50.37 28.37C50.43 28.56 50.16 28.46 50.16 28.46C49.8925 28.1987 49.5339 28.0517 49.16 28.05C48.7728 28.05 48.4014 28.2039 48.1276 28.4777C47.8538 28.7515 47.7 29.1228 47.7 29.51C47.7 29.8972 47.8538 30.2686 48.1276 30.5424C48.4014 30.8162 48.7728 30.97 49.16 30.97C49.2829 30.9853 49.4071 30.9853 49.53 30.97C49.1759 31.3371 48.7387 31.6136 48.2552 31.7762C47.7718 31.9388 47.2563 31.9828 46.7523 31.9043C46.2483 31.8259 45.7706 31.6274 45.3595 31.3255C44.9483 31.0237 44.6158 30.6274 44.39 30.17C44.22 29.91 44.63 30.49 45.3 30.48C45.6651 30.4497 46.0054 30.2833 46.2535 30.0138C46.5016 29.7443 46.6393 29.3913 46.6393 29.025C46.6393 28.6587 46.5016 28.3058 46.2535 28.0363C46.0054 27.7667 45.6651 27.6003 45.3 27.57C45.0005 27.572 44.7083 27.6625 44.46 27.83C44.6994 27.6428 44.8744 27.3855 44.9606 27.094C45.0468 26.8025 45.0398 26.4914 44.9407 26.2041C44.8417 25.9167 44.6554 25.6675 44.4079 25.4911C44.1604 25.3147 43.8639 25.2199 43.56 25.22C43.2585 25.2225 42.9652 25.3183 42.7203 25.4942C42.4754 25.6701 42.291 25.9175 42.1924 26.2024C42.0938 26.4873 42.0858 26.7958 42.1695 27.0854C42.2532 27.3751 42.4246 27.6317 42.66 27.82C42.4148 27.645 42.1213 27.5506 41.82 27.55C41.4328 27.55 41.0614 27.7039 40.7876 27.9777C40.5138 28.2515 40.36 28.6228 40.36 29.01C40.36 29.3972 40.5138 29.7686 40.7876 30.0424C41.0614 30.3162 41.4328 30.47 41.82 30.47C42.48 30.47 42.89 29.89 42.72 30.15C42.4937 30.6055 42.1615 31.0001 41.7512 31.3007C41.3409 31.6012 40.8645 31.799 40.362 31.8774C39.8595 31.9557 39.3455 31.9124 38.8631 31.7511C38.3808 31.5897 37.9442 31.315 37.59 30.95C37.7097 30.9869 37.8347 31.0038 37.96 31C38.1612 31.0167 38.3637 30.9915 38.5547 30.926C38.7457 30.8604 38.9209 30.756 39.0695 30.6192C39.218 30.4825 39.3366 30.3164 39.4178 30.1315C39.4989 29.9466 39.5407 29.7469 39.5407 29.545C39.5407 29.3431 39.4989 29.1434 39.4178 28.9585C39.3366 28.7736 39.218 28.6076 39.0695 28.4708C38.9209 28.3341 38.7457 28.2296 38.5547 28.1641C38.3637 28.0986 38.1612 28.0733 37.96 28.09C37.5873 28.0879 37.2285 28.2315 36.96 28.49C36.96 28.49 36.68 28.57 36.74 28.4C36.8 28.23 38.32 25.4 34.1 25.4L38.02 33.88C38.1905 33.743 38.4013 33.6658 38.62 33.66L48.5 33.63Z" fill="white"/>
<path d="M54.07 45.55C54.07 43.09 55.62 41.69 52.16 37.46C52.8186 36.3619 53.2568 35.1458 53.45 33.88C52.069 33.9801 50.7157 34.3184 49.45 34.88C49.3667 34.7025 49.2375 34.5506 49.0757 34.4398C48.914 34.329 48.7256 34.2635 48.53 34.25H38.53C37.84 34.25 37.21 35.18 36.82 36.96C36.5795 36.7756 36.3134 36.6274 36.03 36.52C34.82 36.05 31.98 36.02 31.14 38.62C30.8738 39.7178 30.8431 40.8595 31.05 41.97C31.05 41.97 34.16 39.64 35.67 42.35L39 43.16C38.33 43.74 36.86 46.9 33.12 45.16C33.0859 46.0334 33.3388 46.8939 33.84 47.61C34.1847 48.0041 34.622 48.3064 35.1125 48.4897C35.6029 48.673 36.1313 48.7315 36.65 48.66C35.49 49.73 36.25 51.36 36.36 53.77C36.7645 52.9666 37.4024 52.3043 38.19 51.87C37.6044 52.8934 37.1985 54.0095 36.99 55.17C36.91 56.99 38.78 58.56 40.41 60.97C40.9 58.16 40.78 57.14 41.3 55.5C41.8848 58.0093 42.1337 60.5852 42.04 63.16C44.85 60.9 48.09 60.84 46.66 54.9C47.5839 56.249 48.2298 57.7686 48.56 59.37C49.89 57.21 53.02 55.83 50.62 50.13C51.93 51.2 52.4 53.04 52.92 53.73C53.3 51 54.86 46.82 51.46 43.67C52.4996 44.0193 53.4094 44.6746 54.07 45.55ZM37.79 37.92C38.21 37.59 39.45 38.22 38.53 39.2C38.6564 39.2815 38.8009 39.3304 38.9508 39.3424C39.1007 39.3544 39.2513 39.329 39.3889 39.2686C39.5266 39.2081 39.6472 39.1145 39.7399 38.9961C39.8325 38.8777 39.8945 38.7382 39.92 38.59H40.21C40.09 39.19 39.21 40.43 38.05 39.65C37.55 39.33 37.22 38.4 37.79 37.92ZM50.56 44.06C53.22 46.76 52.39 48.88 52.49 50.58C52.01 49.79 50.68 48.13 49.68 48.8C49.24 49.08 49.18 49.59 49.5 50.18C51.5 55 49.67 55.8 48.97 56.95C48.5617 55.7716 48.0002 54.652 47.3 53.62C47.1856 53.3898 46.9929 53.208 46.7564 53.1072C46.52 53.0063 46.2553 52.9932 46.01 53.07C45.47 53.28 45.35 53.72 45.53 54.5C46.41 58.86 45.99 59.18 43.26 60.95C43.19 59.46 42.75 53.49 41.38 53.49C40.44 53.49 40.24 54.49 39.76 58.04C37.52 55.74 38.11 54.4 39.49 51.49C39.6004 51.342 39.6532 51.159 39.6384 50.9749C39.6237 50.7909 39.5425 50.6185 39.41 50.49C38.76 49.89 37.81 50.9 37.34 51.38C36.83 48.47 40 48.18 39.34 47.04C38.68 45.9 36.56 48.52 34.67 46.48C37.39 47.74 39.61 43.84 41.26 42.61L36.42 41.21C35.9627 40.5318 35.2754 40.0418 34.4852 39.8304C33.6949 39.6191 32.8549 39.7006 32.12 40.06C32.32 36.98 35.05 37.15 36.79 38.16C36.95 38.8 37.1 39.98 38.11 40.4C39.12 40.82 40.11 40.49 40.81 38.77C41.08 38.57 41.61 38.93 41.61 38.93L41.76 38.23C41.4062 37.9911 41.0033 37.8347 40.581 37.7724C40.1586 37.7101 39.7277 37.7434 39.32 37.87L38.32 37.02C38.32 35.72 39.09 35.48 39.86 35.48H47.98C48.38 35.48 48.32 35.65 48.18 35.76L45.98 37.47L46.55 38.08C48.1035 37.1471 49.7488 36.3764 51.46 35.78C50.6103 37.6139 49.3391 39.221 47.75 40.47C47.75 40.47 47.85 40.78 47.91 41.06C48.3823 42.6932 48.3823 44.4268 47.91 46.06C47.6561 45.0228 47.197 44.047 46.56 43.19C46.4582 43.0411 46.318 42.9225 46.1543 42.8468C45.9905 42.7711 45.8094 42.7411 45.63 42.76C45.426 42.8227 45.254 42.9616 45.1497 43.1478C45.0454 43.334 45.0169 43.5533 45.07 43.76C45.3767 45.3696 45.2242 47.033 44.63 48.56C44.6982 47.5329 44.5199 46.5043 44.11 45.56C43.93 45.21 43.63 44.79 43.11 44.97C42.06 45.34 42.94 47.03 41.83 48.08C41.83 48.08 41.49 46.44 41.49 46.41C41.49 46.38 40.44 47.19 40.44 47.19L40.98 50.11C41.5579 49.9084 42.08 49.5733 42.5039 49.132C42.9279 48.6906 43.2418 48.1555 43.42 47.57C43.5852 49.0484 43.5448 50.5426 43.3 52.01C44.2779 51.3136 45.08 50.3988 45.6425 49.3381C46.2049 48.2775 46.5122 47.1002 46.54 45.9C47.1085 46.9924 47.423 48.1991 47.46 49.43C49.64 47.35 49.54 43.36 49.29 40.77C50.0037 40.1881 50.6723 39.5529 51.29 38.87C53.29 41 53.38 42.3 53.16 43.22C52.41 42.78 51.04 42.22 50.47 42.85C50.13 43.17 50.13 43.56 50.56 44.06Z" fill="white"/>
<path d="M40.91 41.54C42.34 41.26 42.1 42.54 43.73 42.86C42.36 43.38 41.73 41.76 40.91 41.54Z" fill="white"/>
<path d="M35.01 67.44C35.39 67.55 35.58 67.59 35.89 67.66C36.45 69.45 37.15 72.11 37.71 73.89V68C38.03 68.07 38.38 68.15 38.71 68.19V77.59C38.42 77.59 38.23 77.52 37.94 77.48C37.38 75.67 36.56 73.21 36.01 71.41V77.1L35.01 76.89V67.44Z" fill="white"/>
<path d="M58.81 73.9C56.81 76.41 54.52 75.24 54.69 70.61C54.8 67.61 56.24 64.81 58.75 65.42V66.68C55.33 65.13 55.56 71.68 55.98 73.12C56.4 74.56 57.17 74.18 57.78 73.78V70.97C57.55 71.07 57.3 71.21 57.06 71.31V70.18C57.6588 69.9411 58.2432 69.6673 58.81 69.36V73.9Z" fill="white"/>
<path d="M53.75 72.06C53.75 74.73 53.27 76.91 51.52 76.9C49.95 76.9 49.3 74.73 49.3 72.06C49.3 69.39 49.95 67.21 51.52 67.21C53.09 67.21 53.75 69.37 53.75 72.06ZM51.52 68.41C50.71 68.41 50.29 70.11 50.29 72.1C50.29 74.09 50.71 75.71 51.52 75.71C52.33 75.71 52.75 74.09 52.75 72.1C52.75 70.11 52.32 68.39 51.52 68.4V68.41Z" fill="white"/>
</g>
<defs>
<clipPath id="clip0_151_270">
<rect width="281.54" height="87.11" fill="white"/>
</clipPath>
</defs>
</svg>
