<svg width="40" height="40" viewBox="0 0 40 40" fill="none" xmlns="http://www.w3.org/2000/svg">
<path d="M39.8907 20.9178C39.7742 20.6664 39.5813 20.5159 39.375 20.5159H38.2292L32.7765 5.99604C32.7483 5.92102 32.7132 5.85394 32.6732 5.7947C32.6697 5.78953 32.6651 5.7863 32.6614 5.78113C32.6132 5.71285 32.5576 5.66044 32.4977 5.61808C32.4803 5.60581 32.4634 5.59529 32.445 5.58542C32.3765 5.54777 32.305 5.52119 32.2296 5.52119H32.2265H20.625V0.922752C20.625 0.412654 20.3455 0 20 0C19.6545 0 19.375 0.412654 19.375 0.922752V5.52119H7.77095H7.7679C7.69345 5.52175 7.62283 5.54823 7.55508 5.58542C7.53626 5.59566 7.5192 5.60682 7.50151 5.61965C7.44489 5.65997 7.39258 5.71027 7.34633 5.77394C7.33989 5.78279 7.33214 5.78879 7.32589 5.79802C7.28514 5.85911 7.24945 5.92785 7.22102 6.00508L1.90213 20.5159H0.624942C0.418692 20.5159 0.225816 20.6664 0.109191 20.9178C-0.00737146 21.1692 -0.0323715 21.4891 0.0426911 21.773C0.836755 24.789 4.01488 26.895 7.77095 26.895C11.5258 26.895 14.704 24.789 15.498 21.773C15.5731 21.4891 15.5481 21.1692 15.4315 20.9178C15.3149 20.6664 15.122 20.5159 14.9158 20.5159H13.7696L8.8322 7.3667H19.375V34.4121H15.6482C15.5377 34.4121 15.4291 34.4554 15.3338 34.5374L10.9814 38.2798C10.7373 38.4897 10.6189 38.915 10.6921 39.3179C10.766 39.7207 11.0131 40 11.2958 40H28.703C28.9856 40 29.2328 39.7207 29.3067 39.3179C29.3799 38.915 29.2615 38.4897 29.0174 38.2798L24.6662 34.5374C24.5709 34.4554 24.4623 34.4121 24.3518 34.4121H20.625V7.3667H31.1806L26.3608 20.5159H25.0842C24.8779 20.5159 24.685 20.6664 24.5685 20.9178C24.4519 21.1692 24.4269 21.4891 24.502 21.773C25.296 24.789 28.4741 26.895 32.2296 26.895C35.9851 26.895 39.1632 24.789 39.9573 21.773C40.0324 21.4891 40.0074 21.1692 39.8907 20.9178ZM7.77095 25.0495C5.24289 25.0495 2.92539 23.9564 1.80357 22.3614H13.7371C12.6153 23.9564 10.2985 25.0495 7.77095 25.0495ZM3.32382 20.5159L7.7777 8.36419L12.3404 20.5159H3.32382ZM26.3885 38.1545H13.6108L15.8167 36.2576H24.1827L26.3885 38.1545ZM32.2364 8.36419L36.7992 20.5159H27.7824L32.2364 8.36419ZM32.2296 25.0495C29.7015 25.0495 27.3847 23.9564 26.2628 22.3614H38.1964C37.0746 23.9564 34.7577 25.0495 32.2296 25.0495Z" fill="black"/>
</svg>
