<svg width="43" height="27" viewBox="0 0 43 27" fill="none" xmlns="http://www.w3.org/2000/svg">
<path d="M0.518043 0.576564C0.410229 0.630471 0.248508 0.810162 0.158662 0.971883C0.032879 1.24142 0.01491 1.8344 0.0328791 10.3158L0.0508482 19.3722L0.230539 19.5698C0.338353 19.6777 0.949301 20.0191 1.57822 20.3425C2.6923 20.8816 2.76417 20.8996 3.35715 20.8996C4.30951 20.8996 5.08218 20.4863 5.54938 19.7316C5.69313 19.5159 5.98063 18.7972 6.17829 18.1144L6.57361 16.8925L7.84941 17.8987C8.55021 18.4378 9.57444 19.2644 10.1495 19.7316C13.2401 22.2652 16.6003 24.8887 17.9301 25.7871C19.2598 26.6856 20.8949 27.1528 22.009 26.9551C22.2965 26.9012 22.7278 26.7575 22.9434 26.6497C23.3208 26.47 23.4106 26.452 23.77 26.5418C24.8841 26.7754 26.3396 26.1106 26.9505 25.0504C27.1661 24.691 27.1661 24.691 27.5075 24.727C28.6037 24.8887 30.3107 24.0441 30.706 23.1277C30.8318 22.8582 30.9935 22.7683 31.4068 22.7683C31.7842 22.7683 32.6467 22.3191 33.042 21.9238C33.5631 21.4027 33.7967 20.8816 33.8327 20.1089L33.8686 19.462L35.0905 18.8331L36.3124 18.2042L36.528 18.8511C36.9772 20.2167 37.8398 20.8816 39.1335 20.8816C39.7265 20.8816 39.7804 20.8636 40.8945 20.3245C41.5414 20.0191 42.1344 19.6777 42.2422 19.5698L42.4219 19.3722V10.2259V1.06173L42.2422 0.828131C41.8828 0.342967 41.8648 0.360936 37.7319 1.58283C35.6655 2.21175 33.7967 2.80473 33.617 2.91254C32.8623 3.3438 32.3412 4.26022 32.3412 5.1407C32.3412 5.46414 32.3053 5.58993 32.2334 5.58993C32.0537 5.58993 29.3943 4.79929 28.1904 4.386C27.5794 4.17037 26.4653 3.73912 25.7106 3.43364C24.0575 2.75082 23.4465 2.57113 22.5661 2.44534C21.0926 2.24769 19.7809 2.5891 18.2894 3.61333L17.7144 4.00865L16.6003 4.11647C15.9894 4.17037 14.5698 4.33209 13.4558 4.49382C12.3417 4.63757 11.1378 4.79929 10.7963 4.83523L10.1495 4.88914L10.0237 4.42194C9.86195 3.88287 9.4846 3.3438 8.99943 3.00239C8.74787 2.8227 7.70566 2.48128 4.81265 1.61877C2.71027 0.971883 0.931331 0.46875 0.841486 0.46875C0.751641 0.46875 0.643827 0.522657 0.518043 0.576564ZM4.9564 3.45161C8.28067 4.45788 8.40646 4.51179 8.40646 5.10476C8.40646 5.30242 7.59785 7.99778 6.34001 12.0049C5.19 15.6167 4.23764 18.6175 4.2017 18.6714C4.05795 18.923 3.78841 19.1386 3.53684 19.1925C3.32121 19.2284 3.10559 19.1745 2.51261 18.887L1.75791 18.5456V10.5494C1.75791 4.20631 1.77588 2.57113 1.86572 2.57113C1.91963 2.53519 3.32121 2.94848 4.9564 3.45161ZM40.7328 10.5314V18.5276L39.9781 18.8691C39.3851 19.1566 39.1695 19.2105 38.9538 19.1745C38.7023 19.1206 38.4327 18.923 38.289 18.6534C38.253 18.5995 37.3007 15.5987 36.1507 11.9869C34.8749 7.96184 34.0842 5.28445 34.0842 5.0868C34.0842 4.49382 34.21 4.43991 37.4804 3.43364C39.0976 2.94848 40.4992 2.55316 40.571 2.53519C40.7328 2.53519 40.7328 2.96645 40.7328 10.5314ZM23.0512 4.29616C23.4106 4.386 24.1833 4.67351 24.7763 4.92507C26.8786 5.82353 29.3763 6.6501 31.91 7.31496L32.9881 7.58449L34.3897 12.0049C35.1624 14.4307 35.7733 16.4612 35.7553 16.5151C35.7374 16.569 35.1444 16.9104 34.4256 17.2698L33.1319 17.9347L32.9342 17.6831C32.1615 16.6768 30.4365 15.0956 27.1302 12.4182C24.5786 10.3517 23.9317 9.79469 23.1411 9.03999C22.6379 8.57279 22.5661 8.51888 22.2426 8.51888C22.009 8.51888 21.5778 8.64467 21.0028 8.89623C20.5176 9.11186 19.9066 9.30952 19.6191 9.34546C19.1879 9.41734 19.098 9.45327 18.8465 9.77672C18.3433 10.4056 17.7863 10.9088 17.4269 11.0885C16.6722 11.4658 15.1808 11.34 15.073 10.8728C14.9652 10.4595 15.1089 9.9025 15.4863 9.1478C15.9894 8.1595 16.5105 7.45871 17.5347 6.48838C19.7988 4.33209 21.1465 3.79302 23.0512 4.29616ZM15.5222 5.98525C15.5222 6.00322 15.3066 6.30869 15.0191 6.6501C13.6714 8.33919 13.0425 10.1541 13.3839 11.34C13.6534 12.2205 14.3003 12.7236 15.5402 12.9572C16.9957 13.2447 18.2355 12.8315 19.4395 11.6635C19.8707 11.2322 20.1941 10.9986 20.3559 10.9627C20.4996 10.9267 20.9309 10.765 21.3082 10.6213L22.009 10.3338L22.5122 10.801C22.7817 11.0525 23.8239 11.933 24.8122 12.7416C28.2622 15.5448 29.5201 16.6229 30.5084 17.6112C31.7482 18.8331 32.1436 19.4081 32.1436 19.9831C32.1436 20.3425 32.1256 20.4144 31.874 20.6839C31.5506 21.0074 31.1193 21.1871 30.8139 21.1152C30.6881 21.0792 29.5201 19.9652 27.9029 18.33C25.2794 15.6885 25.1716 15.5987 24.8661 15.5987C24.6145 15.5987 24.4887 15.6526 24.2731 15.8862C23.9497 16.2096 23.9137 16.5151 24.1473 16.8925C24.2372 17.0182 25.4052 18.2581 26.7708 19.6238C28.1185 20.9894 29.2326 22.1754 29.2146 22.2293C29.1966 22.4269 28.8732 22.7324 28.5138 22.8941C28.0826 23.1098 27.5794 23.0918 27.22 22.8762C27.0583 22.7863 25.9263 21.6902 24.7223 20.4683C22.62 18.33 22.5122 18.2401 22.2067 18.2401C21.9551 18.2401 21.8293 18.294 21.6137 18.5276C21.2903 18.8511 21.2543 19.1566 21.5059 19.5519C21.5957 19.6956 22.5661 20.7378 23.6622 21.8519L25.6747 23.8824L25.495 24.1879C25.2794 24.5473 24.7044 24.8887 24.327 24.8887C24.1653 24.8887 23.9137 24.7988 23.752 24.709C23.5903 24.6012 22.4762 23.523 21.2723 22.3011C19.6012 20.6121 19.0082 20.055 18.8105 20.0191C18.2176 19.9113 17.6785 20.5222 17.8761 21.0972C17.9301 21.2769 18.6129 22.0316 19.8707 23.3254L21.7934 25.284H21.3621C20.8949 25.284 19.8527 24.9606 19.3676 24.6731C18.541 24.1699 14.3722 20.9714 11.6948 18.7612C10.9581 18.1683 9.66429 17.1261 8.81974 16.4612C7.95723 15.7963 7.23847 15.2034 7.2205 15.1674C7.20253 15.1315 7.7416 13.3166 8.42442 11.1244C9.10725 8.95014 9.7182 7.04542 9.75413 6.90167L9.84398 6.6501L10.6526 6.57823C11.0838 6.54229 12.3237 6.39854 13.3659 6.25478C15.4144 5.93134 15.5222 5.93134 15.5222 5.98525Z" fill="black"/>
</svg>
