<svg width="30" height="29" viewBox="0 0 30 29" fill="none" xmlns="http://www.w3.org/2000/svg">
<g clip-path="url(#clip0_151_446)">
<path d="M3.19278 27.5515C4.23827 28.6257 5.45996 28.5411 6.5172 27.2982L17.6886 14.2285L14.2351 10.6805L1.4777 22.121C0.256005 23.2192 0.185522 24.4621 1.23101 25.5484L3.19278 27.5515ZM24.079 17.161C24.5842 17.6558 25.1598 17.692 25.6415 17.1972L29.1773 13.5889C29.6354 13.1183 29.6002 12.4907 29.1068 11.9959L28.261 11.1149C27.8029 10.6564 27.5092 10.584 27.0159 10.6202L25.6415 10.7891L24.7605 9.884L25.1598 8.18242C25.3595 7.34972 25.0541 6.46875 24.1965 5.58779L21.8354 3.18625C18.5697 -0.156599 12.5552 -0.530708 9.18379 2.92074C8.61993 3.50001 8.72565 4.15169 9.0898 4.562C9.37174 4.83957 9.80637 4.98439 10.2175 4.85163C12.4965 4.15169 14.4817 4.01894 16.1968 5.06886L15.2923 7.5066C14.9046 8.53238 15.1161 9.25647 15.7504 9.92021L18.37 12.6114C18.8516 13.1062 19.3568 13.251 20.1203 13.0941L22.0116 12.6959L22.8809 13.601L22.7516 15.013C22.7164 15.5439 22.7634 15.8577 23.2333 16.3042L24.079 17.161Z" fill="white"/>
</g>
<defs>
<clipPath id="clip0_151_446">
<rect width="29" height="28" fill="white" transform="translate(0.5 0.5)"/>
</clipPath>
</defs>
</svg>
